<?xml version="1.0" encoding="UTF-8"?>
<svg xmlns="http://www.w3.org/2000/svg" width="42.7in" height="22.0in" viewBox="1797 7466 51208 26423">
<g style="stroke-width:.025in; fill:none">
<!-- Line: box -->
<rect x="1889" y="7559" width="51023" height="7559" rx="0" style="stroke:#000000;stroke-width:63; stroke-linejoin:miter; stroke-linecap:butt; "/>
<!-- Line -->
<polyline points="5669,7559 5669,15118 " style="stroke:#000000;stroke-width:63; stroke-linejoin:miter; stroke-linecap:butt; "/>
<!-- Line -->
<polyline points="10393,7559 10393,15118 " style="stroke:#000000;stroke-width:63; stroke-linejoin:miter; stroke-linecap:butt; "/>
<!-- Line -->
<polyline points="15118,7559 15118,15118 " style="stroke:#000000;stroke-width:63; stroke-linejoin:miter; stroke-linecap:butt; "/>
<!-- Line -->
<polyline points="51023,7559 51023,15118 51023,14929 " style="stroke:#000000;stroke-width:63; stroke-linejoin:miter; stroke-linecap:butt; "/>
<!-- Line -->
<polyline points="15118,20787 12661,20787 12661,16121 " style="stroke:#000000;stroke-width:63; stroke-linejoin:miter; stroke-linecap:butt; "/>
<!-- Arrowhead on XXXpoint 12661 20787 - 12661 14992-->
<polygon points="12913 16134 12661 15126 12409 16134 12913 16134  " style="stroke:#000000;stroke-width:63;stroke-miterlimit:8; fill:#000000;"/>
<!-- Line -->
<polyline points="10393,26456 8125,26456 8125,16121 " style="stroke:#000000;stroke-width:63; stroke-linejoin:miter; stroke-linecap:butt; "/>
<!-- Arrowhead on XXXpoint 8125 26456 - 8125 14992-->
<polygon points="8377 16134 8125 15126 7874 16134 8377 16134  " style="stroke:#000000;stroke-width:63;stroke-miterlimit:8; fill:#000000;"/>
<!-- Line -->
<polyline points="5669,33070 3779,33070 3779,16121 " style="stroke:#000000;stroke-width:63; stroke-linejoin:miter; stroke-linecap:butt; "/>
<!-- Arrowhead on XXXpoint 3779 33070 - 3779 14992-->
<polygon points="4031 16134 3779 15126 3527 16134 4031 16134  " style="stroke:#000000;stroke-width:63;stroke-miterlimit:8; fill:#000000;"/>
<!-- Line -->
<polyline points="51968,31937 51968,16121 " style="stroke:#000000;stroke-width:63; stroke-linejoin:miter; stroke-linecap:butt; "/>
<!-- Arrowhead on XXXpoint 51968 31937 - 51968 14992-->
<polygon points="52220 16134 51968 15126 51716 16134 52220 16134  " style="stroke:#000000;stroke-width:63;stroke-miterlimit:8; fill:#000000;"/>
<!-- Text -->
<text xml:space="preserve" x="32881" y="12094" fill="#000000" font-family="Helvetica" font-style="normal" font-weight="bold" font-size="1008" text-anchor="middle">Usage Data (maximum 1460 bytes)</text>
<!-- Text -->
<text xml:space="preserve" x="30047" y="33448" fill="#000000" font-family="Helvetica" font-style="normal" font-weight="bold" font-size="1008" text-anchor="middle">Ethernet (Layer 2) Protocol Header (approx. 14 bytes) + Checksum (2 bytes)</text>
<!-- Text -->
<text xml:space="preserve" x="27401" y="26834" fill="#000000" font-family="Helvetica" font-style="normal" font-weight="bold" font-size="1008" text-anchor="middle">IP (Layer 3) Protocol Header (approx. 20 bytes)</text>
<!-- Text -->
<text xml:space="preserve" x="31748" y="20976" fill="#000000" font-family="Helvetica" font-style="normal" font-weight="bold" font-size="1008" text-anchor="middle">TCP (Layer 4) Protocol Header (approx. 20 bytes)</text>
</g>
</svg>


